# xmcd CD database file
#
# Track frame offsets:
#	150
#	19351
#	39199
#	58639
#	73805
#	116436
#	139070
#	155668
#	179362
#	195638
#	215500
#	234145
#
# Disc length: 3353 seconds
#
# Revision: 0
# Processed by: cddbd v1.5.2PL0 Copyright (c) Steve Scherf et al.
# Submitted via: CDex 1.70beta2
#
DISCID=a60d170c
DTITLE=Jack Weterings - Enniumill
DYEAR=1994
DGENRE=New Age
TTITLE0=Enniumill I
TTITLE1=Enniumill II
TTITLE2=Enniumill III
TTITLE3=Enniumill IV
TTITLE4=Enniumill V
TTITLE5=Enniumill VI
TTITLE6=Enniumill VII
TTITLE7=Enniumill VIII
TTITLE8=Enniumill IX
TTITLE9=Enniumill X
TTITLE10=Enniumill XI
TTITLE11=Enniumill XII
EXTD=YEAR: 1994
EXTT0=
EXTT1=
EXTT2=
EXTT3=
EXTT4=
EXTT5=
EXTT6=
EXTT7=
EXTT8=
EXTT9=
EXTT10=
EXTT11=
PLAYORDER=
